<?xml version="1.0" encoding="utf-8"?>
<!-- Generator: Adobe Illustrator 21.0.2, SVG Export Plug-In . SVG Version: 6.00 Build 0)  -->
<svg version="1.1" id="Layer_1" xmlns="http://www.w3.org/2000/svg" xmlns:xlink="http://www.w3.org/1999/xlink" x="0px" y="0px"
	 viewBox="0 0 163.8 226.6" enable-background="new 0 0 163.8 226.6" xml:space="preserve">
<path id="BTC_alt_1_" d="M151.4,112.6c-7.3-5.5-17.7-7.7-17.7-7.7s8.8-5.1,12.4-10.2c3.6-5.1,5.4-13,5.7-17.1
	c0.3-4.1,1-21.3-12.4-31.2c-10.4-7.7-22.2-10.7-38.2-11.7V0H79.8v34.3c-4.8,0-10.4,0-16.3,0V0H42.1v34.3c-21.8,0-42.1,0-42.1,0v22.2
	c0,0,9,0,12.4,0c3.4,0,9.4,0.4,11.9,3.2c2.5,2.8,3,4.3,3,9.9c0,5.5,0,86.4,0,88.5c0,2.1-0.4,4.7-2.2,6.4c-1.8,1.7-3.6,2.1-7.9,2.1
	c-4.3,0-12.8,0-12.8,0L0,192.4c0,0,20.9,0,42.1,0v34.2h21.4v-34.2c6.6,0,12.3,0,16.3,0v34.2h21.4v-34.8c5.5-0.3,10.7-0.7,13.7-1.1
	c6.1-0.8,19.9-2.4,32.8-11.4c12.9-9,15.8-23.1,16.1-37.3C164.1,127.8,158.7,118.1,151.4,112.6z M63.5,58.5c0,0,6.8-0.6,13.5-0.5
	c6.7,0.1,12.6,0.3,21.4,3c8.8,2.7,14,9.3,14.2,17.1c0.2,7.8-3.2,13-9.2,16.3c-6,3.3-14.3,5.1-22.1,5.4c-7.8,0.3-17.8,0-17.8,0
	S63.5,58.5,63.5,58.5z M111.4,160.8c-4.9,2.7-14.7,5.1-24.2,5.8c-9.5,0.7-23.7,0.4-23.7,0.4v-45.9c0,0,13.6-0.7,24.2,0
	c10.6,0.7,19.5,3.4,23.5,5.4c4,2,11,6.4,11,16.9C122.2,153.9,116.3,158.1,111.4,160.8z"/>
</svg>
