<?xml version="1.0" encoding="UTF-8"?><!DOCTYPE svg PUBLIC "-//W3C//DTD SVG 1.1//EN" "http://www.w3.org/Graphics/SVG/1.1/DTD/svg11.dtd"><svg xmlns="http://www.w3.org/2000/svg"><symbol id="icon-arrow-d" viewBox="0 0 320 192">
    <path d="M300.6 0L320 20.7 160 192 0 20.7 19.3 0 160 150.5z"/>
</symbol><symbol id="icon-arrow-d2" viewBox="0 0 285 362">
    <path d="M270.6 247.6l-105 100.3c-5.8 6-13.7 9-22.4 9s-16.5-3-22.4-9L15.4 247.6c-12.5-11.9-12.5-31.3 0-43.2s32.7-11.9 45.2 0l50.4 48.2v-217C111 18.7 125.3 5 143 5s32 13.7 32 30.6v217l50.4-48.2c12.5-11.9 32.7-11.9 45.2 0s12.5 31.2 0 43.2z"/>
</symbol><symbol id="icon-btc" viewBox="0 0 163.8 226.6">
    <path d="M151.4 112.6c-7.3-5.5-17.7-7.7-17.7-7.7s8.8-5.1 12.4-10.2c3.6-5.1 5.4-13 5.7-17.1.3-4.1 1-21.3-12.4-31.2-10.4-7.7-22.2-10.7-38.2-11.7V0H79.8v34.3H63.5V0H42.1v34.3H0v22.2h12.4c3.4 0 9.4.4 11.9 3.2 2.5 2.8 3 4.3 3 9.9v88.5c0 2.1-.4 4.7-2.2 6.4-1.8 1.7-3.6 2.1-7.9 2.1H4.4L0 192.4h42.1v34.2h21.4v-34.2h16.3v34.2h21.4v-34.8c5.5-.3 10.7-.7 13.7-1.1 6.1-.8 19.9-2.4 32.8-11.4 12.9-9 15.8-23.1 16.1-37.3.3-14.2-5.1-23.9-12.4-29.4zM63.5 58.5s6.8-.6 13.5-.5c6.7.1 12.6.3 21.4 3 8.8 2.7 14 9.3 14.2 17.1.2 7.8-3.2 13-9.2 16.3-6 3.3-14.3 5.1-22.1 5.4-7.8.3-17.8 0-17.8 0V58.5zm47.9 102.3c-4.9 2.7-14.7 5.1-24.2 5.8-9.5.7-23.7.4-23.7.4v-45.9s13.6-.7 24.2 0 19.5 3.4 23.5 5.4c4 2 11 6.4 11 16.9 0 10.5-5.9 14.7-10.8 17.4z"/>
</symbol><symbol id="icon-check" viewBox="0 0 30 22">
    <path d="M0 10l4-4 8 8L26 0l4 4-18 18L0 10z"/>
</symbol><symbol id="icon-eth" viewBox="0 0 22.1 36">
    <title/>
    <path d="M11 0l-.2.8v23.8l.2.3 11.1-6.6z"/>
    <path d="M11 0L0 18.3l11 6.6V13.3z"/>
    <path d="M11 27l-.1.1v8.5l.1.4 11.1-15.6z"/>
    <path d="M11 36v-9L0 20.4z"/>
</symbol><symbol id="icon-facebook" viewBox="0 0 10 19">
    <title>
        facebook
    </title>
    <path d="M9.766.157v2.946H8.014c-.64 0-1.071.134-1.295.402-.223.268-.335.67-.335 1.205v2.11h3.27l-.435 3.303H6.384v8.471H2.97v-8.47H.123V6.82H2.97V4.387c0-1.384.387-2.457 1.161-3.22C4.904.404 5.934.023 7.222.023c1.093 0 1.941.045 2.544.134z" fill-rule="evenodd"/>
</symbol><symbol id="icon-ltc" viewBox="0 0 180.4 226.7">
    <path d="M71.1 184.1l12.7-60.8L148.4 79l7.6-36.1-64.6 44.4L109.7 0H60.1L33.5 127.2 6.3 145.9 0 180.8 26 163l-13.4 63.7h158.9l8.9-42.6z"/>
</symbol><symbol id="icon-xmr" viewBox="0 0 232.5 232.5">
    <path d="M42.7 151.5V56.4l73.7 73.7 73.7-73.7v95.1H224c3.7-11.2 5.7-23.2 5.7-35.6C229.8 53.3 179 2.6 116.4 2.6S3.1 53.3 3.1 115.9c0 12.4 2 24.4 5.7 35.6h33.9z"/>
    <path d="M165.5 174.6v-60.2L116 163.9l-49.1-49.1v59.8H19.4c19.9 32.8 55.9 54.7 97 54.7s77.1-21.9 97-54.7h-47.9z"/>
</symbol></svg>